HIERARCHY
ROOT root
{
	OFFSET	0	13.1	24.9
	CHANNELS 6  Xposition Yposition Zposition Xrotation Yrotation Zrotation
	JOINT spine_1
	{
		OFFSET	0	9.99999	0
		CHANNELS 3  Xrotation Yrotation Zrotation
		JOINT spine_2
		{
			OFFSET	0	112	-10
			CHANNELS 3  Xrotation Yrotation Zrotation
			JOINT spine_3
			{
				OFFSET	0	206.5	19.3
				CHANNELS 3  Xrotation Yrotation Zrotation
				JOINT spine_4
				{
					OFFSET	0	110.4	14.6
					CHANNELS 3  Xrotation Yrotation Zrotation
					JOINT neck_1
					{
						OFFSET	0	71.8	-50.3
						CHANNELS 3  Xrotation Yrotation Zrotation
						JOINT neck_2
						{
							OFFSET	0	86.2	-25.8
							CHANNELS 3  Xrotation Yrotation Zrotation
							JOINT head_ee
							{
								OFFSET	0	179.8	-8.7
								CHANNELS 3  Xrotation Yrotation Zrotation
								End Site
								{
									OFFSET	1	0	0
								}
							}
						}
					}
					JOINT left_clavicle
					{
						OFFSET	-43.2	22.4	-70.8
						CHANNELS 3  Xrotation Yrotation Zrotation
						JOINT left_shoulder
						{
							OFFSET	-93.9	-5.79999	48.7
							CHANNELS 3  Xrotation Yrotation Zrotation
							JOINT left_elbow
							{
								OFFSET	-291.4	-30.8	15.2
								CHANNELS 3  Xrotation Yrotation Zrotation
								JOINT left_lowarm_twist
								{
									OFFSET	-110.7	-3.89999	13.6
									CHANNELS 3  Xrotation Yrotation Zrotation
									JOINT left_hand
									{
										OFFSET	-110.7	-3.89999	13.6
										CHANNELS 3  Xrotation Yrotation Zrotation
										JOINT left_ee
										{
											OFFSET	-80.8	-5.10001	12.1
											CHANNELS 3  Xrotation Yrotation Zrotation
											End Site
											{
												OFFSET	1	0	0
											}
										}
									}
								}
							}
						}
					}
					JOINT right_clavicle
					{
						OFFSET	43.2	22.4	-70.8
						CHANNELS 3  Xrotation Yrotation Zrotation
						JOINT right_shoulder
						{
							OFFSET	93.9	-5.79999	48.7
							CHANNELS 3  Xrotation Yrotation Zrotation
							JOINT right_elbow
							{
								OFFSET	291.4	-30.8	15.2
								CHANNELS 3  Xrotation Yrotation Zrotation
								JOINT right_lowarm_twist
								{
									OFFSET	110.7	-3.89999	13.6
									CHANNELS 3  Xrotation Yrotation Zrotation
									JOINT right_hand
									{
										OFFSET	110.7	-3.89999	13.6
										CHANNELS 3  Xrotation Yrotation Zrotation
										JOINT right_ee
										{
											OFFSET	80.8	-5.10001	12.1
											CHANNELS 3  Xrotation Yrotation Zrotation
											End Site
											{
												OFFSET	1	0	0
											}
										}
									}
								}
							}
						}
					}
				}
			}
		}
	}
	JOINT left_hip
	{
		OFFSET	-82.8	-127.5	0.300001
		CHANNELS 3  Xrotation Yrotation Zrotation
		JOINT left_knee
		{
			OFFSET	-28.2	-396.7	2.2
			CHANNELS 3  Xrotation Yrotation Zrotation
			JOINT left_ankle
			{
				OFFSET	-11.7	-411.3	35.4
				CHANNELS 3  Xrotation Yrotation Zrotation
				JOINT left_toes
				{
					OFFSET	0	-60	-88.6
					CHANNELS 3  Xrotation Yrotation Zrotation
					JOINT left_foot_ee
					{
						OFFSET	-22.5	-16.5	-42.2
						CHANNELS 3  Xrotation Yrotation Zrotation
						End Site
						{
							OFFSET	1	0	0
						}
					}
				}
			}
		}
	}
	JOINT right_hip
	{
		OFFSET	82.8	-127.5	0.300001
		CHANNELS 3  Xrotation Yrotation Zrotation
		JOINT right_knee
		{
			OFFSET	28.2	-396.7	2.2
			CHANNELS 3  Xrotation Yrotation Zrotation
			JOINT right_ankle
			{
				OFFSET	11.7	-411.3	35.4
				CHANNELS 3  Xrotation Yrotation Zrotation
				JOINT right_toes
				{
					OFFSET	0	-60	-88.6
					CHANNELS 3  Xrotation Yrotation Zrotation
					JOINT right_foot_ee
					{
						OFFSET	22.5	-16.5	-42.2
						CHANNELS 3  Xrotation Yrotation Zrotation
						End Site
						{
							OFFSET	1	0	0
						}
					}
				}
			}
		}
	}
}
MOTION
Frames: 8
Frame Time: 0.02
3574.42 741.953 -1474.73 -66.8280973109 83.0998195355 62.0900581616 3.35255 0.765268 3.53728 3.35935 0.538779 3.57873 3.39034 -0.0110688 3.61899 3.37251 0.560252 3.57544 -3.85871 11.9143 -4.36732 -3.53274 25.1042 -2.68434 -0.0 0.0 -0.0 -9.25014 21.0817 -11.1561 5.05319 -18.5163 70.1623 1.55658 -37.6325 0.530424 -31.5918 -2.10452 3.39375 0.675917 11.953 9.24531 -0.0 0.0 -0.0 13.693 23.956 -27.5171 -10.6872 -0.665018 -69.6301 0.189934 5.37514 -0.00891575 13.5196 -0.276815 1.70084 2.66418 19.1601 -9.58672 0.0 0.0 0.0 2.8856 31.504 0.288209 -9.79524 0.277714 1.47578 35.2675 -6.81262 -4.52842 -37.4818 0.0 0.0 -0.0 0.0 -0.0 14.6263 22.6795 -1.88584 -18.4482 -0.310878 -2.80176 41.0407 -9.75266 4.96481 -34.7233 0.0 0.0 0.0 0.0 0.0 
3569.43115099 741.788 -1473.08492081 -54.5758490305 82.1489696789 49.7576320455 3.40545 0.68579 3.57547 3.41245 0.457036 3.6118 3.43839 -0.0939996 3.63935 3.42023 0.481566 3.60862 -4.54312 11.7804 -3.9806 -4.29073 24.6123 -2.14542 -0.0 0.0 -0.0 -9.17774 21.1498 -11.0177 5.93384 -18.2052 69.7359 1.75414 -40.9853 0.655632 -32.5663 -2.19749 3.47728 0.261888 11.5373 6.43354 -0.0 0.0 -0.0 13.532 23.0454 -27.2322 -11.8821 -1.80069 -69.1945 0.191834 5.42858 -0.00909459 13.8967 -0.278743 1.74896 2.56138 18.2986 -9.30973 0.0 0.0 0.0 2.64393 31.3643 0.337862 -9.40895 0.271568 1.41683 34.9054 -7.0811 -4.49788 -38.2687 0.0 0.0 -0.0 0.0 -0.0 14.9047 23.4308 -1.96756 -19.5895 -0.300296 -2.97655 40.9039 -8.69245 4.94615 -33.5137 0.0 0.0 0.0 0.0 0.0 
3569.40080393 741.788 -1473.17997717 -48.6454209092 81.4721786694 43.7663205834 3.40545 0.68579 3.57547 3.41245 0.457036 3.6118 3.43839 -0.0939996 3.63935 3.42023 0.481566 3.60862 -4.54312 11.7804 -3.9806 -4.29073 24.6123 -2.14542 -0.0 0.0 -0.0 -9.17774 21.1498 -11.0177 5.93384 -18.2052 69.7359 1.75414 -40.9853 0.655632 -32.5663 -2.19749 3.47728 0.261888 11.5373 6.43354 -0.0 0.0 -0.0 13.532 23.0454 -27.2322 -11.8821 -1.80069 -69.1945 0.191834 5.42858 -0.00909459 13.8967 -0.278743 1.74896 2.56138 18.2986 -9.30973 0.0 0.0 0.0 2.64393 31.3643 0.337862 -9.40895 0.271568 1.41683 34.9054 -7.0811 -4.49788 -38.2687 0.0 0.0 -0.0 0.0 -0.0 14.9047 23.4308 -1.96756 -19.5895 -0.300296 -2.97655 40.9039 -8.69245 4.94615 -33.5137 0.0 0.0 0.0 0.0 0.0 
3569.36937328 741.788 -1473.28567672 -43.1565623704 80.6341832415 38.2101108042 3.40545 0.68579 3.57547 3.41245 0.457036 3.6118 3.43839 -0.0939996 3.63935 3.42023 0.481566 3.60862 -4.54312 11.7804 -3.9806 -4.29073 24.6123 -2.14542 -0.0 0.0 -0.0 -9.17774 21.1498 -11.0177 5.93384 -18.2052 69.7359 1.75414 -40.9853 0.655632 -32.5663 -2.19749 3.47728 0.261888 11.5373 6.43354 -0.0 0.0 -0.0 13.532 23.0454 -27.2322 -11.8821 -1.80069 -69.1945 0.191834 5.42858 -0.00909459 13.8967 -0.278743 1.74896 2.56138 18.2986 -9.30973 0.0 0.0 0.0 2.64393 31.3643 0.337862 -9.40895 0.271568 1.41683 34.9054 -7.0811 -4.49788 -38.2687 0.0 0.0 -0.0 0.0 -0.0 14.9047 23.4308 -1.96756 -19.5895 -0.300296 -2.97655 40.9039 -8.69245 4.94615 -33.5137 0.0 0.0 0.0 0.0 0.0 
3569.33884412 741.788 -1473.39705029 -38.4128314046 79.6796209906 33.3957564933 3.40545 0.68579 3.57547 3.41245 0.457036 3.6118 3.43839 -0.0939996 3.63935 3.42023 0.481566 3.60862 -4.54312 11.7804 -3.9806 -4.29073 24.6123 -2.14542 -0.0 0.0 -0.0 -9.17774 21.1498 -11.0177 5.93384 -18.2052 69.7359 1.75414 -40.9853 0.655632 -32.5663 -2.19749 3.47728 0.261888 11.5373 6.43354 -0.0 0.0 -0.0 13.532 23.0454 -27.2322 -11.8821 -1.80069 -69.1945 0.191834 5.42858 -0.00909459 13.8967 -0.278743 1.74896 2.56138 18.2986 -9.30973 0.0 0.0 0.0 2.64393 31.3643 0.337862 -9.40895 0.271568 1.41683 34.9054 -7.0811 -4.49788 -38.2687 0.0 0.0 -0.0 0.0 -0.0 14.9047 23.4308 -1.96756 -19.5895 -0.300296 -2.97655 40.9039 -8.69245 4.94615 -33.5137 0.0 0.0 0.0 0.0 0.0 
3569.30464201 741.788 -1473.53500515 -33.694260594 78.4251768242 28.590111201 3.40545 0.68579 3.57547 3.41245 0.457036 3.6118 3.43839 -0.0939996 3.63935 3.42023 0.481566 3.60862 -4.54312 11.7804 -3.9806 -4.29073 24.6123 -2.14542 -0.0 0.0 -0.0 -9.17774 21.1498 -11.0177 5.93384 -18.2052 69.7359 1.75414 -40.9853 0.655632 -32.5663 -2.19749 3.47728 0.261888 11.5373 6.43354 -0.0 0.0 -0.0 13.532 23.0454 -27.2322 -11.8821 -1.80069 -69.1945 0.191834 5.42858 -0.00909459 13.8967 -0.278743 1.74896 2.56138 18.2986 -9.30973 0.0 0.0 0.0 2.64393 31.3643 0.337862 -9.40895 0.271568 1.41683 34.9054 -7.0811 -4.49788 -38.2687 0.0 0.0 -0.0 0.0 -0.0 14.9047 23.4308 -1.96756 -19.5895 -0.300296 -2.97655 40.9039 -8.69245 4.94615 -33.5137 0.0 0.0 0.0 0.0 0.0 
3569.27284558 741.788 -1473.68038037 -29.766653877 77.0437944935 24.571123341 3.40545 0.68579 3.57547 3.41245 0.457036 3.6118 3.43839 -0.0939996 3.63935 3.42023 0.481566 3.60862 -4.54312 11.7804 -3.9806 -4.29073 24.6123 -2.14542 -0.0 0.0 -0.0 -9.17774 21.1498 -11.0177 5.93384 -18.2052 69.7359 1.75414 -40.9853 0.655632 -32.5663 -2.19749 3.47728 0.261888 11.5373 6.43354 -0.0 0.0 -0.0 13.532 23.0454 -27.2322 -11.8821 -1.80069 -69.1945 0.191834 5.42858 -0.00909459 13.8967 -0.278743 1.74896 2.56138 18.2986 -9.30973 0.0 0.0 0.0 2.64393 31.3643 0.337862 -9.40895 0.271568 1.41683 34.9054 -7.0811 -4.49788 -38.2687 0.0 0.0 -0.0 0.0 -0.0 14.9047 23.4308 -1.96756 -19.5895 -0.300296 -2.97655 40.9039 -8.69245 4.94615 -33.5137 0.0 0.0 0.0 0.0 0.0 
3569.23739628 741.788 -1473.87237617 -25.756720471 75.1580991357 20.4409015381 3.40545 0.68579 3.57547 3.41245 0.457036 3.6118 3.43839 -0.0939996 3.63935 3.42023 0.481566 3.60862 -4.54312 11.7804 -3.9806 -4.29073 24.6123 -2.14542 -0.0 0.0 -0.0 -9.17774 21.1498 -11.0177 5.93384 -18.2052 69.7359 1.75414 -40.9853 0.655632 -32.5663 -2.19749 3.47728 0.261888 11.5373 6.43354 -0.0 0.0 -0.0 13.532 23.0454 -27.2322 -11.8821 -1.80069 -69.1945 0.191834 5.42858 -0.00909459 13.8967 -0.278743 1.74896 2.56138 18.2986 -9.30973 0.0 0.0 0.0 2.64393 31.3643 0.337862 -9.40895 0.271568 1.41683 34.9054 -7.0811 -4.49788 -38.2687 0.0 0.0 -0.0 0.0 -0.0 14.9047 23.4308 -1.96756 -19.5895 -0.300296 -2.97655 40.9039 -8.69245 4.94615 -33.5137 0.0 0.0 0.0 0.0 0.0 
